<?xml version="1.0" encoding="UTF-8" standalone="no"?>
<!-- Created with Inkscape (http://www.inkscape.org/) -->

<svg
   xmlns:dc="http://purl.org/dc/elements/1.1/"
   xmlns:cc="http://creativecommons.org/ns#"
   xmlns:rdf="http://www.w3.org/1999/02/22-rdf-syntax-ns#"
   xmlns:svg="http://www.w3.org/2000/svg"
   xmlns="http://www.w3.org/2000/svg"
   version="1.1"
   width="1280"
   height="800"
   id="svg2">
  <metadata
     id="metadata8">
    <rdf:RDF>
      <cc:Work
         rdf:about="">
        <dc:format>image/svg+xml</dc:format>
        <dc:type
           rdf:resource="http://purl.org/dc/dcmitype/StillImage" />
        <dc:title></dc:title>
      </cc:Work>
    </rdf:RDF>
  </metadata>
  <defs
     id="defs6" />
  <path
     d="m 323.61111,525 21.52778,20.13889 14.58333,8.33333 2.08334,20.13889 35.41666,14.58333 11.80556,17.36112 25,10.41666 25,-18.75 -20.83334,-10.41666 -29.86111,-6.25 0,-9.72223 79.16667,-9.72222 15.27778,7.63889 18.75,58.33333 -10.41667,4.86111 -27.08333,-20.83333 -16.66667,28.47222 45.13889,40.97223 48.61111,-2.77778 31.25,-22.91667 L 643.75,657.63889 669.44445,555.55556 632.63889,531.25 686.80556,529.86111 681.25,495.83333 639.58333,475 l 218.05556,-9.72222 -33.33333,76.38889 5.55555,21.52777 8.33334,4.16667 -7.63889,36.11111 11.80555,6.25 -12.5,30.55556 4.16667,4.86111 35.41667,7.63889 10.41666,20.83333 19.44445,-8.33333 0,-20.13889 6.25,-0.69445 4.86111,14.58334 34.72222,0 9.02778,-11.11111 L 944.44445,612.5 923.61111,595.13889 1034.7222,593.05556 1011.8056,500 l -31.25004,-29.86111 -3.47223,-22.22222 58.33337,-1.38889 47.2222,-15.27778 -0.6945,-34.72222 -38.8888,-33.33334 117.3611,2.08334 1.3889,33.33333 9.7222,1.38889 6.25,-172.22222 -8.3334,-77.08334 -31.25,-0.69444 -30.5555,-7.63889 -777.77779,-15.27778 z"
     id="path2987"
     style="fill:none;stroke:#ff0000;stroke-width:1px;stroke-linecap:butt;stroke-linejoin:miter;stroke-opacity:1" />
</svg>
