<?xml version="1.0" encoding="UTF-8" standalone="no"?>
<svg
   xmlns:dc="http://purl.org/dc/elements/1.1/"
   xmlns:cc="http://creativecommons.org/ns#"
   xmlns:rdf="http://www.w3.org/1999/02/22-rdf-syntax-ns#"
   xmlns:svg="http://www.w3.org/2000/svg"
   xmlns="http://www.w3.org/2000/svg"
   id="svg2"
   version="1.1"
   width="1237"
   height="777">
  <path
     style="color:#000000;fill:none;stroke:#000000;stroke-width:2;stroke-linecap:butt;stroke-linejoin:miter;stroke-miterlimit:4;stroke-opacity:1;stroke-dasharray:none;stroke-dashoffset:0;marker:none;visibility:visible;display:inline;overflow:visible;enable-background:accumulate"
     d="m 303.6924,108.62241 12.44709,455.54054 39.80682,26.09213 23.5946,-20.00929 22.26026,13.3434 -3.33005,26.39671 52.44535,1.82746 8.40923,-36.29112 -21.9876,-45.87227 26.52693,0.40456 -7.61992,-43.99105 135.86475,23.84406 -34.46656,45.45455 8.83273,5.903 -26.23716,63.73211 20.99554,-14.5907 20.11951,30.31269 47.37486,4.06104 4.84133,-8.00894 14.95621,10.50648 44.91211,-6.78482 -25.79335,-15.70461 -0.80642,-16.38337 -59.85962,-11.38249 70.7664,-44.70616 12.76615,-32.86826 18.61692,4.26407 24.3575,34.67833 57.52453,-8.06695 6.29171,64.00477 -21.47126,18.36167 -49.02247,-6.18438 -7.56802,22.03111 48.30888,11.84081 41.63428,-26.3532 31.8066,13.58994 4.93415,14.03088 20.14561,7.33016 33.70948,-1.49388 46.49303,-49.68384 17.20716,0.25526 3.79707,-22.50681 16.02657,2.02181 -13.63927,-28.53745 -44.29136,-20.91142 117.8599,-0.45543 11.7045,-32.04444 -8.2034,-41.26011 -43.7982,-40.00406 142.7279,-0.19145 6.7356,-15.43193 5.4074,-42.36863 43.7001,0.56092 -0.8828,-287.31867 -896.9313,19.01728 0,-1e-5 z"
     id="path2818" collision-object="true"/>
</svg>
