<?xml version="1.0" encoding="UTF-8" standalone="no"?>
<!-- Created with Inkscape (http://www.inkscape.org/) -->

<svg
   xmlns:dc="http://purl.org/dc/elements/1.1/"
   xmlns:cc="http://creativecommons.org/ns#"
   xmlns:rdf="http://www.w3.org/1999/02/22-rdf-syntax-ns#"
   xmlns:svg="http://www.w3.org/2000/svg"
   xmlns="http://www.w3.org/2000/svg"
   xmlns:sodipodi="http://sodipodi.sourceforge.net/DTD/sodipodi-0.dtd"
   xmlns:inkscape="http://www.inkscape.org/namespaces/inkscape"
   id="svg2"
   version="1.1"
   inkscape:version="0.48.2 r9819"
   width="1024"
   height="768"
   sodipodi:docname="bg.png">
  <metadata
     id="metadata8">
    <rdf:RDF>
      <cc:Work
         rdf:about="">
        <dc:format>image/svg+xml</dc:format>
        <dc:type
           rdf:resource="http://purl.org/dc/dcmitype/StillImage" />
        <dc:title></dc:title>
      </cc:Work>
    </rdf:RDF>
  </metadata>
  <defs
     id="defs6" />
  <sodipodi:namedview
     pagecolor="#ffffff"
     bordercolor="#666666"
     borderopacity="1"
     objecttolerance="10"
     gridtolerance="10"
     guidetolerance="10"
     inkscape:pageopacity="0"
     inkscape:pageshadow="2"
     inkscape:window-width="1920"
     inkscape:window-height="1176"
     id="namedview4"
     showgrid="false"
     showguides="true"
     inkscape:guide-bbox="true"
     inkscape:zoom="1.2463739"
     inkscape:cx="617.05578"
     inkscape:cy="341.85746"
     inkscape:window-x="0"
     inkscape:window-y="24"
     inkscape:window-maximized="1"
     inkscape:current-layer="svg2" />
  <path
     style="fill:none;stroke:#ff0000;stroke-width:1px;stroke-linecap:butt;stroke-linejoin:miter;stroke-opacity:1"
     d="m 136.91666,507.18055 36.11111,28.47222 2.08334,20.13889 72.22222,42.36111 25,-18.75 -54.70609,-23.98191 94.45609,-10.1066 15.54069,67.15893 -30.29069,-19.18153 -16.66667,28.47222 45.13889,40.97223 48.61111,-2.77778 31.25,-22.91667 51.38889,2.77778 25.69445,-102.08333 -36.80557,-24.30556 54.16668,-1.38889 -5.55556,-34.02778 -41.66667,-20.83333 215.64858,-10.52455 -31.8973,72.4036 5.19114,102.25917 61.76562,29.65894 10.45023,-25.15504 6.6879,15.38567 54.76044,1.72612 -34.56719,-65.61502 98.27384,0.32365 -14.09099,-95.46254 -31.25004,-29.86111 -3.47223,-22.22222 58.33337,-1.38889 47.22219,-15.27778 -0.6945,-34.72222 -38.8888,-33.33334 115.36111,2.08334 18.3204,33.11757 -4.0834,-249.30556 -842.7926,-22.00646 z"
     id="path2987"
     inkscape:connector-curvature="0"
     sodipodi:nodetypes="cccccccccccccccccccccccccccccccccccccccc" />
</svg>
